<svg width="48" height="48" viewBox="0 0 48 48" fill="none" xmlns="http://www.w3.org/2000/svg">
<path d="M23.9999 0.230103C19.2888 0.230103 14.6834 1.62712 10.7662 4.2445C6.84908 6.86187 3.79601 10.582 1.99313 14.9345C0.190253 19.2871 -0.281463 24.0765 0.637637 28.6971C1.55674 33.3177 3.82537 37.562 7.15666 40.8933C10.4879 44.2246 14.7322 46.4933 19.3529 47.4124C23.9735 48.3316 28.7629 47.8597 33.1154 46.0569C37.468 44.2541 41.1881 41.201 43.8055 37.2837C46.4229 33.3666 47.8199 28.7612 47.8199 24.0501C47.8136 17.7345 45.3019 11.6795 40.8362 7.21384C36.3704 2.7481 30.3154 0.236456 23.9999 0.230103ZM23.9999 44.8701C19.8821 44.8701 15.8568 43.649 12.4329 41.3613C9.00914 39.0735 6.34059 35.8219 4.76477 32.0175C3.18896 28.2132 2.77665 24.027 3.57999 19.9883C4.38334 15.9496 6.36625 12.2398 9.27798 9.32814C12.1897 6.41641 15.8994 4.4335 19.9381 3.63015C23.9768 2.82681 28.163 3.23912 31.9674 4.81493C35.7717 6.39075 39.0234 9.0593 41.3111 12.4831C43.5988 15.9069 44.8199 19.9322 44.8199 24.0501C44.8136 29.5699 42.618 34.8619 38.7149 38.765C34.8117 42.6681 29.5198 44.8637 23.9999 44.8701Z" fill="black"/>
<path d="M33.8759 14.9782C32.1239 15.2542 30.3719 15.4462 28.6079 15.5782C29.2918 14.6406 29.6615 13.5107 29.6639 12.3502C29.6988 11.598 29.5809 10.8466 29.3171 10.1413C29.0533 9.43603 28.6493 8.7916 28.1294 8.24696C27.6095 7.70233 26.9845 7.2688 26.2922 6.9726C25.6 6.6764 24.8548 6.52368 24.1019 6.52368C23.3489 6.52368 22.6038 6.6764 21.9115 6.9726C21.2193 7.2688 20.5943 7.70233 20.0744 8.24696C19.5545 8.7916 19.1504 9.43603 18.8866 10.1413C18.6229 10.8466 18.5049 11.598 18.5399 12.3502C18.5422 13.5107 18.9119 14.6406 19.5959 15.5782C17.8319 15.4462 16.0679 15.2542 14.3159 14.9782C13.5949 14.838 12.8483 14.9218 12.1763 15.2182C11.5043 15.5146 10.939 16.0095 10.5563 16.6364C10.1736 17.2633 9.99185 17.9922 10.0354 18.7254C10.0789 19.4586 10.3457 20.1609 10.7999 20.7381C11.0813 21.1307 11.4387 21.4626 11.8511 21.7141C12.2634 21.9656 12.7221 22.1316 13.1999 22.2021C15.2039 22.5261 17.2799 22.7542 19.3919 22.8982V24.7582L13.1999 34.4902C12.9399 34.8959 12.7623 35.349 12.6774 35.8234C12.5924 36.2978 12.6018 36.7842 12.7048 37.255C12.913 38.2058 13.4904 39.035 14.3099 39.5601C15.1294 40.0853 16.124 40.2633 17.0748 40.0552C17.5456 39.9521 17.9914 39.7573 18.3869 39.4819C18.7825 39.2065 19.1199 38.8559 19.3799 38.4501L23.9999 31.1061L28.6439 38.4501C28.9017 38.8591 29.238 39.2129 29.6333 39.4912C30.0287 39.7695 30.4752 39.9666 30.9472 40.0714C31.4192 40.1761 31.9072 40.1862 32.3831 40.1013C32.8591 40.0163 33.3134 39.8379 33.72 39.5764C34.1266 39.3148 34.4774 38.9753 34.752 38.5775C35.0266 38.1796 35.2197 37.7313 35.3201 37.2584C35.4206 36.7854 35.4263 36.2973 35.337 35.8222C35.2477 35.3471 35.0651 34.8943 34.7999 34.4902L28.7999 25.0461V22.8502C30.9119 22.7062 32.9879 22.4782 34.9919 22.1542C35.9467 21.995 36.7991 21.4631 37.3617 20.6755C37.9243 19.8878 38.151 18.9089 37.9919 17.9542C37.8327 16.9994 37.3008 16.1469 36.5132 15.5843C35.7255 15.0217 34.7467 14.795 33.7919 14.9542L33.8759 14.9782ZM24.0959 9.7821C24.6066 9.76778 25.11 9.90612 25.5417 10.1795C25.9733 10.4528 26.3137 10.8487 26.5191 11.3165C26.7246 11.7843 26.7858 12.3028 26.695 12.8055C26.6042 13.3083 26.3655 13.7726 26.0094 14.139C25.6532 14.5054 25.1959 14.7572 24.6959 14.8623C24.1959 14.9673 23.6759 14.9208 23.2025 14.7288C22.729 14.5367 22.3237 14.2078 22.0382 13.7841C21.7527 13.3603 21.6001 12.8611 21.5999 12.3502C21.5996 11.6814 21.8603 11.0389 22.3264 10.5593C22.7925 10.0797 23.4274 9.80085 24.0959 9.7821ZM34.5599 19.2502C32.143 19.6293 29.7075 19.8777 27.2639 19.9942C26.8787 20.0127 26.5154 20.1788 26.2495 20.4582C25.9835 20.7375 25.8354 21.1085 25.8359 21.4942V25.4902C25.8378 25.7754 25.921 26.0544 26.0759 26.2942L32.2919 36.0501C32.3385 36.1234 32.3702 36.2051 32.3851 36.2906C32.4001 36.3761 32.398 36.4638 32.3791 36.5485C32.3601 36.6332 32.3247 36.7133 32.2747 36.7843C32.2247 36.8553 32.1612 36.9157 32.0879 36.9621C31.9391 37.0531 31.7608 37.0827 31.5906 37.0446C31.4204 37.0066 31.2717 36.9038 31.1759 36.7581L25.2719 27.4461C25.1434 27.2414 24.967 27.071 24.7579 26.9498C24.5489 26.8285 24.3134 26.76 24.0719 26.7501C23.8185 26.7503 23.5693 26.8141 23.347 26.9356C23.1247 27.0572 22.9366 27.2329 22.7999 27.4461L16.7999 36.8061C16.7589 36.8896 16.7007 36.9634 16.6292 37.0228C16.5576 37.0822 16.4743 37.1258 16.3848 37.1508C16.2952 37.1758 16.2014 37.1815 16.1095 37.1677C16.0175 37.1539 15.9295 37.1208 15.8513 37.0706C15.773 37.0204 15.7062 36.9542 15.6553 36.8765C15.6044 36.7987 15.5705 36.711 15.5558 36.6192C15.5411 36.5274 15.546 36.4335 15.5702 36.3437C15.5943 36.2539 15.6371 36.1702 15.6959 36.0982L22.0919 26.0061C22.2486 25.7673 22.332 25.4878 22.3319 25.2021V21.4822C22.3323 21.0965 22.1842 20.7255 21.9183 20.4462C21.6524 20.1668 21.2891 20.0007 20.9039 19.9822C18.4725 19.869 16.0489 19.6246 13.6439 19.2502C13.5576 19.2381 13.4748 19.2084 13.4005 19.163C13.3262 19.1176 13.262 19.0574 13.2119 18.9862C13.1315 18.8819 13.0848 18.7557 13.0779 18.6243C13.071 18.4929 13.1043 18.3625 13.1733 18.2504C13.2424 18.1384 13.3439 18.05 13.4644 17.9971C13.5849 17.9442 13.7187 17.9292 13.8479 17.9542C20.6372 19.0342 27.5546 19.0342 34.3439 17.9542C34.5166 17.9292 34.6924 17.9712 34.8351 18.0716C34.9779 18.172 35.0769 18.3231 35.1119 18.4942C35.1362 18.6672 35.0922 18.8429 34.9892 18.9841C34.8861 19.1252 34.7321 19.2206 34.5599 19.2502Z" fill="black"/>
</svg>
