<svg width="48" height="32" viewBox="0 0 48 32" fill="none" xmlns="http://www.w3.org/2000/svg">
<path d="M45.3842 1.84996C44.8686 1.55644 44.2854 1.40209 43.6922 1.40209C43.0989 1.40209 42.5157 1.55644 42.0002 1.84996L34.8002 6.04996V5.13796C34.8002 3.78537 34.2629 2.48815 33.3065 1.53172C32.3499 0.575294 31.0527 0.0379639 29.7002 0.0379639H6.00015C4.64754 0.0379639 3.35034 0.575294 2.39389 1.53172C1.43747 2.48815 0.900146 3.78537 0.900146 5.13796V26.3899C0.900146 27.0597 1.03206 27.723 1.28836 28.3417C1.54465 28.9605 1.92033 29.5227 2.39389 29.9962C2.86747 30.4698 3.4297 30.8455 4.04845 31.1017C4.66722 31.3581 5.3304 31.4899 6.00015 31.4899H29.6762C30.3479 31.4932 31.0137 31.3636 31.6352 31.1086C32.2568 30.8538 32.8218 30.4786 33.2979 30.0048C33.774 29.5309 34.1519 28.9675 34.4097 28.3473C34.6674 27.7269 34.8002 27.0618 34.8002 26.3899V25.4779L42.0002 29.6299C42.5219 29.931 43.1139 30.0883 43.7162 30.0859C44.3148 30.0897 44.9034 29.9322 45.4202 29.6299C45.944 29.3332 46.3791 28.9021 46.6808 28.3812C46.9824 27.8601 47.1396 27.268 47.1362 26.6659V4.86196C47.1447 4.24822 46.9863 3.64371 46.6776 3.11314C46.3691 2.58256 45.9219 2.14593 45.3842 1.84996ZM31.7762 7.7299V26.3899C31.7762 26.9469 31.5549 27.481 31.161 27.8749C30.7673 28.2687 30.2331 28.4899 29.6762 28.4899H6.00015C5.44318 28.4899 4.90905 28.2687 4.51522 27.8749C4.1214 27.481 3.90015 26.9469 3.90015 26.3899V5.13796C3.90331 4.5831 4.12596 4.05204 4.51945 3.66079C4.91293 3.26956 5.44527 3.04996 6.00015 3.04996H29.6762C30.2331 3.04996 30.7673 3.27121 31.161 3.66504C31.5549 4.05886 31.7762 4.59301 31.7762 5.14996V7.7299ZM44.1002 26.6659C44.1015 26.7402 44.082 26.8134 44.0438 26.877C44.0057 26.9406 43.9503 26.9923 43.8842 27.0259C43.8224 27.0682 43.7492 27.0909 43.6742 27.0909C43.5992 27.0909 43.526 27.0682 43.4642 27.0259L34.8002 22.0099V9.5179L43.4882 4.50196C43.55 4.45966 43.6232 4.43703 43.6982 4.43703C43.7732 4.43703 43.8464 4.45966 43.9082 4.50196C43.9743 4.5357 44.0297 4.58734 44.0678 4.65099C44.106 4.71465 44.1255 4.78774 44.1242 4.86196L44.1002 26.6659Z" fill="#1D1C1D"/>
<path d="M25.608 15.302C25.2419 15.1745 24.8403 15.1963 24.4901 15.3624C24.1397 15.5286 23.8689 15.8259 23.736 16.1901C23.2955 17.3883 22.4994 18.4231 21.4544 19.1563C20.4095 19.8895 19.1654 20.2858 17.8889 20.2924C16.6124 20.2989 15.3642 19.9153 14.3118 19.1928C13.2594 18.4704 12.4528 17.4436 12 16.25C11.8473 15.9131 11.5737 15.6458 11.2333 15.5011C10.8928 15.3563 10.5105 15.3448 10.1619 15.4685C9.81334 15.5923 9.52392 15.8424 9.35097 16.1694C9.17802 16.4964 9.13414 16.8763 9.22801 17.234C9.86803 19.0192 11.0439 20.5632 12.5947 21.6546C14.1455 22.7461 15.9956 23.3319 17.892 23.3319C19.7885 23.3319 21.6386 22.7461 23.1894 21.6546C24.7401 20.5632 25.916 19.0192 26.556 17.234C26.6291 17.0455 26.6622 16.8439 26.6534 16.642C26.6447 16.44 26.5941 16.2419 26.5052 16.0604C26.4161 15.8789 26.2904 15.7179 26.136 15.5874C25.9815 15.4569 25.8018 15.3596 25.608 15.302Z" fill="#1D1C1D"/>
<path d="M14.8442 14.438C15.1926 14.4403 15.5338 14.3395 15.8248 14.1481C16.116 13.9568 16.344 13.6835 16.48 13.3628C16.6161 13.0421 16.654 12.6883 16.5892 12.346C16.5244 12.0037 16.3597 11.6882 16.116 11.4394C15.8721 11.1905 15.5601 11.0195 15.2193 10.9478C14.8783 10.8761 14.5238 10.9069 14.2004 11.0363C13.877 11.1658 13.5991 11.3882 13.4019 11.6753C13.2047 11.9626 13.0969 12.3016 13.0922 12.65C13.0874 12.8831 13.1292 13.1147 13.215 13.3315C13.301 13.5482 13.4292 13.7456 13.5924 13.9121C13.7556 14.0786 13.9503 14.2109 14.1653 14.3012C14.3802 14.3915 14.611 14.438 14.8442 14.438Z" fill="#1D1C1D"/>
<path d="M20.5558 14.438C20.9041 14.4403 21.2454 14.3395 21.5365 14.1481C21.8277 13.9568 22.0555 13.6835 22.1916 13.3628C22.3276 13.0421 22.3657 12.6883 22.3009 12.346C22.2361 12.0037 22.0714 11.6882 21.8277 11.4394C21.5838 11.1905 21.2718 11.0195 20.9308 10.9478C20.59 10.8761 20.2354 10.9069 19.912 11.0363C19.5886 11.1658 19.3108 11.3882 19.1136 11.6753C18.9163 11.9626 18.8086 12.3016 18.8038 12.65C18.799 12.8831 18.8407 13.1147 18.9267 13.3315C19.0126 13.5482 19.1409 13.7456 19.3041 13.9121C19.4673 14.0786 19.662 14.2109 19.8769 14.3012C20.0919 14.3915 20.3227 14.438 20.5558 14.438Z" fill="#1D1C1D"/>
</svg>
